<svg xmlns="http://www.w3.org/2000/svg" xmlns:xlink="http://www.w3.org/1999/xlink" viewBox="0 0 335.29 469.68">
    <defs>
        <linearGradient id="linear-gradient" x1="118.78" y1="286" x2="118.78" y2="205.2" gradientUnits="userSpaceOnUse">
            <stop offset="0.39" stop-color="#ccc" stop-opacity="0"/><stop offset="1" stop-color="#ccc"/>
        </linearGradient>
        <linearGradient id="linear-gradient-2" x1="219.73" y1="245.7" x2="219.73" y2="161.71" xlink:href="#linear-gradient"/>
        <linearGradient id="linear-gradient-3" x1="70.18" y1="322.04" x2="264.24" y2="322.04" gradientUnits="userSpaceOnUse">
            <stop offset="0" stop-color="#eae9e2"/><stop offset="1" stop-color="#fff"/>
        </linearGradient>
        <linearGradient id="linear-gradient-4" x1="61.25" y1="182.28" x2="271.94" y2="182.28" xlink:href="#linear-gradient-3"/>
    </defs>
    <title>css3</title>
    <g id="Layer_2" data-name="Layer 2">
        <g id="Layer_1-2" data-name="Layer 1">
            <polygon points="303.85 433 167.64 469.68 31.43 433 0 92.48 335.29 92.48 303.85 433" style="fill:#243c98"/>
            <polygon points="167.64 120.06 167.64 440.43 167.95 440.51 278.18 410.83 303.62 120.06 167.64 120.06" style="fill:#4f8ec1"/>
            <polygon points="90.34 42.45 90.34 22.18 119.91 22.18 119.91 0 68.16 0 68.16 62.68 119.91 62.68 119.91 42.45 90.34 42.45" style="fill:#fff"/>
            <path d="M173.1,22.18h20.68V0H142V22.18c6.93,6.92,10.54,10.24,20.55,20.25l-20.55,0V62.68h51.76V42.45Z" style="fill:#fff"/>
            <path d="M246.46,22.18h20.67V0H215.37V22.18c6.93,6.92,10.54,10.24,20.55,20.25l-20.55,0V62.68h51.76V42.45Z" style="fill:#fff"/>
            <polygon points="167.52 205.2 70.03 245.81 73.26 286 167.52 245.7 267.79 202.84 271.94 161.71 167.52 205.2" style="fill:#fff"/>
            <polygon points="70.03 245.81 73.26 286 167.52 245.7 167.52 205.2 70.03 245.81" style="fill:url(#linear-gradient)"/>
            <polygon points="271.94 161.71 167.52 205.2 167.52 245.7 267.79 202.84 271.94 161.71" style="fill:url(#linear-gradient-2)"/>
            <polygon points="70.18 245.81 73.42 286 218.04 286.47 214.81 340.06 167.22 353.46 121.47 341.91 118.69 308.64 76.19 308.64 81.73 372.87 167.68 398.28 253.15 373.33 264.24 245.81 70.18 245.81" style="fill:url(#linear-gradient-3)"/>
            <g style="opacity:0.05">
                <polygon points="167.52 245.81 70.03 245.81 73.26 286 167.52 286.31 167.52 245.81"/>
                <polygon points="167.52 353.33 167.06 353.46 121.32 341.91 118.55 308.64 76.04 308.64 81.58 372.87 167.52 398.28 167.52 353.33"/>
            </g>
            <polygon points="61.25 161.71 271.94 161.71 267.79 202.84 66.33 202.84 61.25 161.71" style="fill:url(#linear-gradient-4)"/>
            <polygon points="167.52 161.71 61.25 161.71 66.33 202.84 167.52 202.84 167.52 161.71" style="opacity:0.05"/>
        </g>
    </g>
</svg>