<svg id="Layer_1" data-name="Layer 1" xmlns="http://www.w3.org/2000/svg" viewBox="0 0 469.53 477.67"><title>google-maps</title><path d="M15.73,446.4v-340a35.81,35.81,0,0,1,35.8-35.8h340Z" transform="translate(-15.73 -11.67)" style="fill:#329243;fill-rule:evenodd"/><path d="M15.73,453.53V446.4L391.5,70.61h7.14a35.82,35.82,0,0,1,35.81,35.8v7.15L58.67,489.33H51.53A35.81,35.81,0,0,1,15.73,453.53Z" transform="translate(-15.73 -11.67)" style="fill:#fce227;fill-rule:evenodd"/><polygon points="42.94 477.67 209.36 311.25 375.78 477.67 42.94 477.67" style="fill:#516eb1;fill-rule:evenodd"/><path d="M391.5,489.33l-169-169,43-42.94,169,169v7.13a35.82,35.82,0,0,1-35.81,35.8Z" transform="translate(-15.73 -11.67)" style="fill:#fff;fill-rule:evenodd"/><polygon points="418.72 434.73 252.3 268.31 418.72 101.89 418.72 434.73" style="fill:#c1bcb3;fill-rule:evenodd"/><path d="M90.41,116.9c21.31-9.75,48-5.77,65.27,10.18-5.42,5.52-11,10.91-16.54,16.28-17.3-17.17-49.82-9-57.93,13.69-10.6,22.35,7,51.75,32,52.07,16.32,1.9,32.6-9,36.05-25.29-11.41,0-22.79-.08-34.17.09-.32-7-.36-14.06-.21-21.09,19,.49,38.55-1.09,57.31.77,1.43,13.92.44,28.7-7,40.92-11.75,21.86-39.47,31.4-62.93,25.88-29-6-50.72-35.77-46.76-65.24C57.45,144.37,71.5,125.52,90.41,116.9Z" transform="translate(-15.73 -11.67)" style="fill:#efefef"/><path d="M361.32,11.67h13.61c33.92,1.94,67.09,18.51,87.65,45.78,13.47,17.22,21,38.6,22.67,60.31v8c-.79,42.09-27.72,76.64-51,109.37-26.17,37-50.37,77.3-57.07,122.9-1.8,7.72.35,18.53-8.87,22-2.17-1.69-4.7-3.09-6.22-5.45-2.74-25.49-9.11-50.66-20-73.94-12.34-27.12-29.52-51.63-47-75.61-10.63-14.38-20.65-29.27-28.93-45.13-13-23.78-17.87-51.88-12.55-78.56a110.63,110.63,0,0,1,30.64-55.67A121.84,121.84,0,0,1,361.32,11.67ZM358.66,85.8c-16.09,3.59-29.6,17.82-31,34.48-1.69,15.51,7.39,31.25,21.29,38.1,15.07,8,34.86,5.53,47.45-6,11.75-10.4,16-28.35,9.89-42.88C399.08,91.33,377.52,81,358.66,85.8Z" transform="translate(-15.73 -11.67)" style="fill:#dc4b3e"/><path d="M358.66,85.8c18.86-4.83,40.42,5.53,47.68,23.71,6.14,14.53,1.86,32.48-9.89,42.88-12.59,11.52-32.38,14-47.45,6-13.9-6.85-23-22.59-21.29-38.1C329.06,103.62,342.57,89.39,358.66,85.8Z" transform="translate(-15.73 -11.67)" style="fill:#802c27"/></svg>