<?xml version="1.0" encoding="utf-8"?>
<!-- Generator: Adobe Illustrator 23.0.1, SVG Export Plug-In . SVG Version: 6.00 Build 0)  -->
<svg version="1.1" id="Layer_1" xmlns="http://www.w3.org/2000/svg" xmlns:xlink="http://www.w3.org/1999/xlink" x="0px" y="0px"
	 viewBox="0 0 363.69 512" style="enable-background:new 0 0 363.69 512;" xml:space="preserve">
<style type="text/css">
	.st0{fill:#FFFFFF;}
	.st1{fill:#E34E26;}
	.st2{fill:#EF662A;}
	.st3{fill:#EBEBEB;}
</style>
<g>
	<g>
		<g>
			<path class="st0" d="M34.37,0h23.08v22.8h21.11V0h23.08v69.04H78.56V45.92H57.45v23.12H34.37L34.37,0L34.37,0z"/>
			<path class="st0" d="M131.98,22.9h-20.32V0h63.72v22.9h-20.33v46.15h-23.08L131.98,22.9L131.98,22.9z"/>
			<path class="st0" d="M185.5,0h24.06l14.8,24.26L239.15,0h24.07v69.04h-22.98V34.82l-15.88,24.55h-0.4l-15.89-24.55v34.22H185.5V0
				z"/>
			<path class="st0" d="M274.71,0h23.08v46.22h32.45v22.82h-55.54V0z"/>
		</g>
	</g>
</g>
<g id="Guides_to_delete">
	<g>
		<polygon class="st1" points="33.11,470.73 0,99.3 363.69,99.3 330.54,470.76 181.76,512 		"/>
		<polygon class="st2" points="181.85,129.66 181.85,480.45 302.15,447.1 330.5,129.66 		"/>
		<polygon class="st0" points="67.75,175.22 80.03,312.98 237.92,312.98 232.62,372.07 181.79,385.81 131.05,372.08 127.65,334.15 
			81.92,334.15 88.46,407.28 181.77,433.2 275.21,407.28 287.73,267.43 121.69,267.43 117.53,220.78 291.72,220.78 291.86,220.78 
			295.94,175.22 		"/>
		<g>
			<polygon class="st3" points="181.85,175.22 67.75,175.22 80.03,312.98 181.85,312.98 181.85,267.43 121.69,267.43 117.53,220.78 
				181.85,220.78 			"/>
			<polygon class="st3" points="181.85,385.79 181.79,385.81 131.05,372.08 127.65,334.15 81.92,334.15 88.46,407.28 181.77,433.2 
				181.85,433.18 			"/>
		</g>
	</g>
</g>
</svg>
