<svg id="Layer_1" data-name="Layer 1" xmlns="http://www.w3.org/2000/svg" viewBox="0 0 278.36 70.75"><title>jQuery-white</title><path d="M218,176.11c0,.62-.06,1.25-.14,1.92l2.49-4.52L220.1,172l2.5-.38.91,6.25,1.15-3.92a4.81,4.81,0,0,0,.15-1,3.69,3.69,0,0,0-.12-1l2.62-.5a6.49,6.49,0,0,1,.14,1.48,6.38,6.38,0,0,1-.62,2.35L224.72,181h-3.11l-.66-4.23L218.51,181h-3a61.28,61.28,0,0,0-.3-9l2.6-.4A26,26,0,0,1,218,176.11Z" transform="translate(-110.82 -113.13)" style="fill:#fff"/><path d="M234.26,174c-1.21.65-1.65.9-2.75,1.57L230.34,181h-2.69l1.9-9.08,2.39-.41-.1,1.27a20.1,20.1,0,0,1,2.47-1.27Z" transform="translate(-110.82 -113.13)" style="fill:#fff"/><path d="M235.86,171.91l2.79-.39-2,9.49h-2.69Zm.87-4.12,2.79-.38-.62,2.87-2.76.38Z" transform="translate(-110.82 -113.13)" style="fill:#fff"/><path d="M243.61,173.86l-1,4.64a1.81,1.81,0,0,0,0,.25c0,.14.07.19.26.19a4.38,4.38,0,0,0,1.47-.38l.47,1.88a6.64,6.64,0,0,1-3,.76c-1.36,0-2.06-.65-2-1.76a2.73,2.73,0,0,1,0-.4l1.1-5.18h-1.38l.46-2.16h1.38l.46-2.24,2.78-.38-.55,2.62h2.22l-.61,2.16Z" transform="translate(-110.82 -113.13)" style="fill:#fff"/><path d="M246.82,175c.46-2.14,1.46-3.52,4.41-3.52,1.76,0,3.07.77,3,2.34-.06,1.81-1,2.66-3.34,3.34-1.14.35-1.16.35-2,.56l-.14.65c-.07.34,0,.65.45.65a10.9,10.9,0,0,0,3.69-1l.45,1.91a9.42,9.42,0,0,1-4.59,1.28c-1.93,0-2.73-.84-2.67-2.43a6.07,6.07,0,0,1,.15-1.13Zm4.91-.9c0-.32-.27-.53-.77-.53-1,0-1.28.55-1.44,1.32l-.13.65c.46-.12.67-.15,1.23-.33C251.35,175,251.71,174.68,251.73,174.12Z" transform="translate(-110.82 -113.13)" style="fill:#fff"/><path d="M261.2,167.89l2.79-.38L261.14,181h-2.69Z" transform="translate(-110.82 -113.13)" style="fill:#fff"/><path d="M264.33,175c.46-2.14,1.47-3.52,4.41-3.52,1.76,0,3.07.77,3,2.34-.07,1.81-1,2.66-3.35,3.34-1.14.35-1.16.35-2,.56l-.14.65c-.07.34,0,.65.46.65a10.91,10.91,0,0,0,3.68-1l.45,1.91a9.42,9.42,0,0,1-4.59,1.28c-1.93,0-2.73-.84-2.67-2.43a6.07,6.07,0,0,1,.15-1.13Zm4.91-.9c0-.32-.27-.53-.76-.53-1,0-1.29.55-1.45,1.32l-.13.65c.46-.12.67-.15,1.23-.33C268.87,175,269.22,174.68,269.24,174.12Z" transform="translate(-110.82 -113.13)" style="fill:#fff"/><path d="M272,180.59l.58-2a7.18,7.18,0,0,0,2.51.48c.9,0,1-.27,1.06-.71s-.17-.65-1.2-1.21c-1.92-1-2-1.72-1.67-3.11.43-2,1-2.55,3.62-2.55a10.22,10.22,0,0,1,2.76.44l-.51,2a10.18,10.18,0,0,0-2.34-.34c-.8,0-.92.09-1,.59s0,.54.88,1c2.1,1.15,2.41,1.55,2.09,3-.45,2.11-1.09,2.95-3.89,2.95A7.93,7.93,0,0,1,272,180.59Z" transform="translate(-110.82 -113.13)" style="fill:#fff"/><path d="M279.7,180.59l.59-2a7.14,7.14,0,0,0,2.51.48c.89,0,1-.27,1.05-.71s-.17-.65-1.2-1.21c-1.91-1-2-1.72-1.67-3.11.44-2,1-2.55,3.63-2.55a10.22,10.22,0,0,1,2.76.44l-.52,2a10.09,10.09,0,0,0-2.33-.34c-.81,0-.93.09-1,.59s0,.54.88,1c2.1,1.15,2.42,1.55,2.1,3-.46,2.11-1.1,2.95-3.89,2.95A8,8,0,0,1,279.7,180.59Z" transform="translate(-110.82 -113.13)" style="fill:#fff"/><path d="M287.09,183.09l1.55-2.08h-1l.67-3.18H291l-.73,3.41L288,183.88Z" transform="translate(-110.82 -113.13)" style="fill:#fff"/><path d="M301.83,181l-.05-.8a4.67,4.67,0,0,1-3,1c-2,0-2.48-1.22-2-3.31l.52-2.5c.46-2.22,1.09-3.89,5-3.89a6.79,6.79,0,0,1,1.13.1l.78-3.71,2.76-.38L304.1,181Zm-2.47-2.79c-.11.49,0,.72.49.72a3.35,3.35,0,0,0,2.2-.95l.87-4.15a5.67,5.67,0,0,0-1.05-.08c-1.4,0-1.71.75-1.91,1.65Z" transform="translate(-110.82 -113.13)" style="fill:#fff"/><path d="M306.61,178.08a4.81,4.81,0,0,1,.08-.65l.46-2.16c.5-2.39,1.72-3.77,5-3.77,2.5,0,3.58,1.44,3.52,3.1a3.22,3.22,0,0,1-.08.67l-.45,2.16c-.49,2.24-1.61,3.77-5,3.77C307.75,181.2,306.55,179.78,306.61,178.08Zm6.33-3.27c0-.69-.38-1.05-1.26-1.05a1.67,1.67,0,0,0-1.81,1.44l-.48,2.31a3,3,0,0,0-.06.38c0,.67.39,1.05,1.27,1.05a1.66,1.66,0,0,0,1.81-1.43l.48-2.31A3,3,0,0,0,312.94,174.81Z" transform="translate(-110.82 -113.13)" style="fill:#fff"/><path d="M332.1,174.68a2.21,2.21,0,0,0,0-.29c0-.19-.09-.27-.35-.27a8.13,8.13,0,0,0-2.46.9l-1.26,6H325.4l1.33-6.33a2.21,2.21,0,0,0,0-.29c0-.19-.09-.27-.36-.27A8.19,8.19,0,0,0,324,175l-1.26,6H320l1.9-9.08,2.39-.41-.06,1A9,9,0,0,1,328,171.5a1.43,1.43,0,0,1,1.57,1.09,7.63,7.63,0,0,1,3.8-1.09c1.24,0,1.68.71,1.64,1.9a6.3,6.3,0,0,1-.14,1.07L333.47,181h-2.7Z" transform="translate(-110.82 -113.13)" style="fill:#fff"/><path d="M335.88,178.08a4.81,4.81,0,0,1,.08-.65l.46-2.16c.5-2.39,1.72-3.77,5-3.77,2.5,0,3.58,1.44,3.52,3.1a3.22,3.22,0,0,1-.08.67l-.45,2.16c-.49,2.24-1.61,3.77-5,3.77C337,181.2,335.82,179.78,335.88,178.08Zm6.33-3.27c0-.69-.38-1.05-1.26-1.05a1.67,1.67,0,0,0-1.81,1.44l-.48,2.31a3,3,0,0,0-.06.38c0,.67.39,1.05,1.27,1.05a1.66,1.66,0,0,0,1.81-1.43l.48-2.31A3,3,0,0,0,342.21,174.81Z" transform="translate(-110.82 -113.13)" style="fill:#fff"/><path d="M352.07,174c-1.21.65-1.66.9-2.75,1.57L348.15,181h-2.7l1.91-9.08,2.38-.41-.1,1.27a21.64,21.64,0,0,1,2.47-1.27Z" transform="translate(-110.82 -113.13)" style="fill:#fff"/><path d="M352.68,175c.46-2.14,1.46-3.52,4.4-3.52,1.76,0,3.08.77,3,2.34-.06,1.81-1,2.66-3.35,3.34-1.14.35-1.16.35-2,.56l-.13.65c-.07.34,0,.65.45.65a10.9,10.9,0,0,0,3.69-1l.45,1.91a9.46,9.46,0,0,1-4.6,1.28c-1.93,0-2.72-.84-2.67-2.43a7.13,7.13,0,0,1,.16-1.13Zm4.91-.9c0-.32-.27-.53-.77-.53-1,0-1.28.55-1.44,1.32l-.14.65c.47-.12.68-.15,1.24-.33C357.21,175,357.57,174.68,357.59,174.12Z" transform="translate(-110.82 -113.13)" style="fill:#fff"/><path d="M361.2,177.83h2.7l-.67,3.18h-2.69Z" transform="translate(-110.82 -113.13)" style="fill:#fff"/><path d="M114.09,126.57c-4.56,6.55-4,15.07-.51,22,.08.17.17.33.26.5a3.18,3.18,0,0,0,.16.32l.1.17.18.33.33.57a2.7,2.7,0,0,0,.2.31c.11.2.25.4.38.6l.16.26c.18.27.36.54.56.8a0,0,0,0,0,0,0l.09.13c.17.23.33.45.51.68l.19.24.47.58.18.21q.31.39.66.75v0s0,0,0,0c.21.24.43.47.66.71l.22.21c.17.17.34.35.53.52l.22.21c.23.22.47.45.72.66h0l.13.11.66.56.27.22.56.43c.1.07.19.15.3.22l.61.45.23.15.06.05.6.4.26.17.94.58.26.15.71.39.39.2.5.27.12,0,.21.1.8.38.17.07.94.39.22.09.88.32.11,0c.33.12.66.22,1,.32l.24.08a8.89,8.89,0,0,0,1,.28c22,4,28.44-13.24,28.44-13.24-5.38,7-14.93,8.85-24,6.79-.33-.07-.66-.18-1-.28l-.25-.07-1-.32-.14-.05-.85-.32-.24-.09q-.48-.18-.93-.39l-.19-.07-.77-.37-.23-.11-.6-.3-.4-.21c-.25-.13-.49-.27-.73-.41l-.24-.14c-.32-.18-.63-.38-.94-.57l-.26-.17-.67-.45-.22-.15-.63-.46-.28-.21-.57-.45-.25-.2c-.25-.2-.48-.4-.71-.6l-.09-.07-.74-.68-.22-.2-.53-.53-.21-.21c-.23-.23-.45-.46-.66-.7l0,0-.66-.76-.18-.21-.49-.6-.17-.22c-.19-.24-.37-.49-.55-.74-5-6.84-6.83-16.29-2.82-24" transform="translate(-110.82 -113.13)" style="fill:#88cfe3"/><path d="M128.24,121.05c-3.31,4.74-3.13,11.09-.55,16.11a20,20,0,0,0,1.45,2.43,11.22,11.22,0,0,0,1.7,2.12c.23.26.48.51.74.77l.19.19.76.7,0,0h0c.29.25.58.49.89.73l.2.16c.3.23.61.45.92.67l0,0c.13.1.28.19.42.28l.19.13c.23.15.46.28.69.42l.1.05c.19.12.4.24.6.34l.22.12.42.21a.15.15,0,0,0,.07,0c.29.15.58.28.87.41l.2.08.72.3.31.11.66.23.31.1a6.2,6.2,0,0,0,1,.27c17,2.83,20.94-10.27,20.94-10.27-3.54,5.1-10.4,7.53-17.72,5.63l-1-.28-.29-.09-.67-.23-.31-.12-.72-.29-.19-.08-.89-.41-.45-.23-.25-.13c-.2-.1-.38-.21-.57-.32l-.13-.08a7.74,7.74,0,0,1-.68-.42l-.21-.13-.45-.3c-.31-.21-.61-.44-.91-.67-.08,0-.14-.11-.21-.16a20.42,20.42,0,0,1-6.95-9.9,15.36,15.36,0,0,1,1.2-12.33" transform="translate(-110.82 -113.13)" style="fill:#88cfe3"/><path d="M140.13,116.93a9.9,9.9,0,0,0-.79,9.57,13.46,13.46,0,0,0,7.73,7.22l.42.15.19.06c.2.06.4.13.6.17,9.4,1.82,11.94-4.82,12.63-5.79-2.24,3.21-6,4-10.59,2.86a8.38,8.38,0,0,1-1.11-.34,13.81,13.81,0,0,1-1.33-.55,14.51,14.51,0,0,1-2.32-1.41c-4.12-3.13-6.67-9.09-4-13.94" transform="translate(-110.82 -113.13)" style="fill:#88cfe3"/><path d="M357.81,130.32l.37,1.56a.62.62,0,0,1-.63.81" transform="translate(-110.82 -113.13)" style="fill:#fff"/><path d="M328.18,127.65c-.1.43-.21,1-.28,1.34l-3.25,15.21,3.42-16Z" transform="translate(-110.82 -113.13)" style="fill:#fff"/><polygon points="119.96 24.7 118.17 31.06 119.96 24.71 119.96 24.7" style="fill:#fff"/><path d="M358.18,131.88l-.93-4c-.74-2.87-2.84-4.22-7.54-4.22h-19.8a.93.93,0,0,0-1,.65L321.4,160a2.49,2.49,0,0,0-.08,1c.06.23.94.18,1.39.18h6.86a7.17,7.17,0,0,0,1.53-.06c.25-.11.37-.78.46-1.23L334,147.36l3-13.85a1.08,1.08,0,0,1,1-.81h19.61a.63.63,0,0,0,.63-.81" transform="translate(-110.82 -113.13)" style="fill:#fff"/><path d="M386.07,117.44c-.45,0-8.69,0-8.69,0a2,2,0,0,0-1.3.87l-15.26,22.45c-.26.38-.55.37-.65-.08L359,135.76a1.09,1.09,0,0,0-1-.81h-9.81a.61.61,0,0,0-.6.82l4.4,15.42a3.75,3.75,0,0,1,0,1.6l-2,7.81c-.11.44.17.57.64.57h9.68c.46,0,.93-.13,1-.57l2.05-7.92a4.77,4.77,0,0,1,.7-1.41l24.91-33c.28-.37.24-.8-.21-.8Z" transform="translate(-110.82 -113.13)" style="fill:#fff"/><path d="M283.94,123.73h-8.85c-.46,0-.92.16-1,.6L271.16,138l-2.92,13.11c-.09.44-.54.41-1,.41h-5.82c-5.75,0-5.09-3.64-3.91-9.09,0-.05,3.7-18.13,3.7-18.13.08-.44-.22-.6-.67-.6H252.1c-.45,0-.91.16-1,.6l-3.4,18.12c-1.69,9.79-1.74,18.41,9.62,18.7h17.93c.46,0,.91-.16,1-.6l3.85-18.16L284,124.15S284.09,123.73,283.94,123.73Z" transform="translate(-110.82 -113.13)" style="fill:#fff"/><path d="M195.76,123.7h-9.5c-.45,0-.91.11-1,.55l-1.71,7.41a.62.62,0,0,0,.65.79h9.09a1.13,1.13,0,0,0,1-.85l1.65-7.47S196.07,123.7,195.76,123.7Z" transform="translate(-110.82 -113.13)" style="fill:#fff"/><path d="M183.57,135a1.09,1.09,0,0,0-1,.81l-1.28,5.65-2.85,13.06s-1.52,6.93-1.67,7.37c0,0-1.28,5-4.33,4.81a26.24,26.24,0,0,1-3.05-.42h0c-.85-.26-.91.63-1,1.07l-1.89,8.13a.67.67,0,0,0,.64.86,62.66,62.66,0,0,0,7,.57h.47c7.13,0,10.9-4.19,13.3-15.57l2.83-13.18,2.64-12.25a.66.66,0,0,0-.62-.86" transform="translate(-110.82 -113.13)" style="fill:#fff"/><path d="M306.34,123.64c-16,0-19.78,9.87-21.9,19.65-2.12,10-1.94,17.86,14.58,17.86h15.12a1.12,1.12,0,0,0,1-.86l1.63-6.33c.09-.45-.21-.58-.66-.58H301.23c-5.38,0-7.31-1.66-7.12-5.38,0-.42.48-1.5.93-1.5h22.89c1,0,1-.6,1-.6,2.33-10.51,2.48-22.26-12.63-22.26m4.21,15.67c0,.5-1.56.4-1.56.4l-12.45-.09c-.43,0-.55-.6-.58-1A4.72,4.72,0,0,1,296,138c1-3.34,3.83-5.25,8.38-5.25,5.12,0,6.21,2.54,6.21,5.36" transform="translate(-110.82 -113.13)" style="fill:#fff"/><path d="M237.34,150.86s4.47-10.87,5.48-17.15c1.39-8.4-2.81-20.58-19.06-20.58s-23.17,11.63-25.85,24.28.83,23.83,16.89,23.74l24.52,0a1.15,1.15,0,0,0,1-.8l2.07-7.87a.62.62,0,0,0-.63-.81h-4a.51.51,0,0,1-.56-.59.61.61,0,0,1,.05-.18m-8.44-6.67-1.84,6.29a1.18,1.18,0,0,1-1.1.74h-9.49c-7.21,0-9-5.57-7.21-13.88,1.76-8.49,5.24-13.74,12.33-14.27,9.68-.73,11.67,6.11,9.32,14Z" transform="translate(-110.82 -113.13)" style="fill:#fff"/></svg>