<?xml version="1.0" encoding="utf-8"?>
<!-- Generator: Adobe Illustrator 23.0.1, SVG Export Plug-In . SVG Version: 6.00 Build 0)  -->
<svg version="1.1" id="Layer_1" xmlns="http://www.w3.org/2000/svg" xmlns:xlink="http://www.w3.org/1999/xlink" x="0px" y="0px"
	 viewBox="0 0 648 535" style="enable-background:new 0 0 648 535;" xml:space="preserve">
<style type="text/css">
	.st0{fill:#FF00FF;}
	.st1{fill:#00FFFF;}
	.st2{fill:none;stroke:#000000;stroke-width:0.25;stroke-miterlimit:10;}
	.st3{fill:none;stroke:#FF00FF;stroke-width:3;stroke-miterlimit:10;}
	.st4{opacity:0.5;}
	.st5{fill:none;stroke:#FF00FF;}
	.st6{fill:none;stroke:#FFFFFF;stroke-width:6;}
	.st7{fill:#FFFF00;}
	.st8{font-family:'PermanentMarker-Regular';}
	.st9{font-size:215.161px;}
	.st10{opacity:0.1;}
</style>
<g id="background-star">
	<g>
		
			<image style="overflow:visible;opacity:0.75;" width="551" height="550" xlink:href="6125580F5025AE80.png"  transform="matrix(1 0 0 1 10 -4)">
		</image>
		<polygon class="st0" points="295.5,6 325.19,40.45 362.79,14.86 382.56,55.82 425.5,40.83 433.99,85.51 479.35,82.15 
			475.99,127.51 520.67,136 505.68,178.94 546.64,198.71 521.05,236.31 555.5,266 521.05,295.69 546.64,333.29 505.68,353.06 
			520.67,396 475.99,404.49 479.35,449.85 433.99,446.49 425.5,491.17 382.56,476.18 362.79,517.14 325.19,491.55 295.5,526 
			265.81,491.55 228.21,517.14 208.44,476.18 165.5,491.17 157.01,446.49 111.65,449.85 115.01,404.49 70.33,396 85.32,353.06 
			44.36,333.29 69.95,295.69 35.5,266 69.95,236.31 44.36,198.71 85.32,178.94 70.33,136 115.01,127.51 111.65,82.15 157.01,85.51 
			165.5,40.83 208.44,55.82 228.21,14.86 265.81,40.45 		"/>
	</g>
	<g>
		
			<image style="overflow:visible;opacity:0.66;" width="545" height="544" xlink:href="6125580F5025AE81.png"  transform="matrix(1 0 0 1 25 -8)">
		</image>
		<polygon class="st1" points="301.5,0 331.19,34.45 368.79,8.86 388.56,49.82 431.5,34.83 439.99,79.51 485.35,76.15 
			481.99,121.51 526.67,130 511.68,172.94 552.64,192.71 527.05,230.31 561.5,260 527.05,289.69 552.64,327.29 511.68,347.06 
			526.67,390 481.99,398.49 485.35,443.85 439.99,440.49 431.5,485.17 388.56,470.18 368.79,511.14 331.19,485.55 301.5,520 
			271.81,485.55 234.21,511.14 214.44,470.18 171.5,485.17 163.01,440.49 117.65,443.85 121.01,398.49 76.33,390 91.32,347.06 
			50.36,327.29 75.95,289.69 41.5,260 75.95,230.31 50.36,192.71 91.32,172.94 76.33,130 121.01,121.51 117.65,76.15 163.01,79.51 
			171.5,34.83 214.44,49.82 234.21,8.86 271.81,34.45 		"/>
	</g>
	<polygon class="st2" points="301.5,0 331.19,34.45 368.79,8.86 388.56,49.82 431.5,34.83 439.99,79.51 485.35,76.15 481.99,121.51 
		526.67,130 511.68,172.94 552.64,192.71 527.05,230.31 561.5,260 527.05,289.69 552.64,327.29 511.68,347.06 526.67,390 
		481.99,398.49 485.35,443.85 439.99,440.49 431.5,485.17 388.56,470.18 368.79,511.14 331.19,485.55 301.5,520 271.81,485.55 
		234.21,511.14 214.44,470.18 171.5,485.17 163.01,440.49 117.65,443.85 121.01,398.49 76.33,390 91.32,347.06 50.36,327.29 
		75.95,289.69 41.5,260 75.95,230.31 50.36,192.71 91.32,172.94 76.33,130 121.01,121.51 117.65,76.15 163.01,79.51 171.5,34.83 
		214.44,49.82 234.21,8.86 271.81,34.45 	"/>
	<polygon class="st3" points="273.2,474.92 237.38,499.31 218.54,460.28 177.63,474.56 169.53,431.98 126.32,435.18 129.52,391.97 
		86.94,383.87 101.22,342.96 62.19,324.12 86.58,288.29 53.75,260 86.58,231.7 62.19,195.88 101.22,177.04 86.94,136.13 
		129.52,128.03 126.32,84.82 169.53,88.02 177.63,45.44 218.54,59.72 237.38,20.69 273.2,45.08 301.5,12.25 329.8,45.08 
		365.62,20.69 384.46,59.72 425.37,45.44 433.47,88.02 476.68,84.82 473.48,128.03 516.06,136.13 501.78,177.04 540.81,195.88 
		516.42,231.7 549.25,260 516.42,288.29 540.81,324.12 501.78,342.96 516.06,383.87 473.48,391.97 476.68,435.18 433.47,431.98 
		425.37,474.56 384.46,460.28 365.62,499.31 329.8,474.92 301.5,507.75 	"/>
</g>
<g id="G">
	<g>
		<path d="M430,337c-3,26,21,63-8,60c-12.91-1.34-45.99-9.56-52-16c-4.07-4.36-8-8-9.12-24.81c-0.8-11.93-3.93-22.66-4.88-22.19
			c-10.9,5.45-8.64,8.3-21,12c-12.37,3.71-25.99,6.61-39,10c-13.02,3.39-16.99,5.28-30.17,8.99c-13.18,3.71-26.11,7.97-38.8,12.79
			c-5.54,0.02-10.26,0.2-14.17,0.53c-3.91,0.34-7.65,0.83-11.23,1.47c-3.59,0.65-7.16,1.3-10.74,1.95
			c-3.59,0.65-7.49,1.15-11.72,1.48c-1.64-0.31-2.69,0.01-3.17,0.97c-0.49,0.96-1.21,1.76-2.19,2.39
			c-6.52,0.98-12.38,1.48-17.59,1.5c-5.22,0.02-9.61,0.04-13.19,0.05c-4.57,0.02-9.28,0.68-14.16,1.96
			c-4.88,1.29-9.45,1.78-13.68,1.48c-29.32-1.15-52.33-11.25-69.02-30.26c-16.69-19.01-25.91-45.21-27.67-78.59
			c0.31-1.59-0.01-2.62-0.99-3.1c-0.98-0.47-1.8-1.02-2.45-1.66c-0.01-3.5,0.46-6.68,1.43-9.54c0.97-2.87,1.11-6.52,0.45-10.97
			c10.01-21.02,21.42-40.54,34.23-58.56c12.8-18.01,28.13-33.89,46-47.63c2.92-2.23,5.27-4.55,7.06-6.94
			c1.78-2.39,3.56-4.7,5.35-6.94c1.78-2.23,3.81-4.23,6.09-5.98c2.27-1.75,5.2-2.96,8.78-3.61c8.1-9.25,17.85-17.72,29.22-25.39
			c11.37-7.67,23.23-15.03,35.59-22.08c12.35-7.04,24.78-14.24,37.3-21.61c12.51-7.36,23.8-15.35,33.87-23.98
			c3.59,2.21,6.44,2.92,8.56,2.11c2.11-0.8,4.31-0.89,6.6-0.26c2.96,6.03,6.8,10.23,11.53,12.59c4.73,2.37,9.62,4.73,14.69,7.1
			c5.06,2.37,9.79,5.21,14.2,8.53c4.41,3.32,7.76,7.84,10.07,13.55c-2.28,0.01-3.34,0.81-3.17,2.4c0.17,1.59,0.58,3.34,1.24,5.24
			c0.66,1.91,0.99,3.66,1,5.24c0.01,1.59-1.46,2.39-4.39,2.4c0.01,2.23,1.15,3.33,3.43,3.32c1.85-0.01,3.42,1.39,3.44,3.21
			c0.03,1.96-0.38,3.52-1.2,4.66c-0.81,1.12-0.89,2.95-0.22,5.49c-7.8,5.12-16.5,10.01-26.09,14.65
			c-9.6,4.65-19.68,9.54-30.24,14.66c-10.57,5.13-21.3,10.66-32.19,16.58c-10.9,5.93-21.7,12.72-32.42,20.4
			c-10.72,7.67-21.52,16.14-32.4,25.4c-10.88,9.27-21.35,19.09-31.41,29.45c-10.06,10.38-19.47,21.06-28.22,32.06
			c-8.75,11-16.21,21.76-22.36,32.28c0.65,1.59,1.55,3.02,2.7,4.28c1.14,1.27,2.04,2.7,2.7,4.28c12.38,0.59,23.95,0.47,34.69-0.37
			c10.75-0.83,21.5-0.16,32.26,2.02c1.29-0.96,2.11-2.23,2.43-3.82c0.31-1.59,1.29-2.7,2.92-3.35c22.14-2.31,42.81-5.96,62.02-10.97
			c19.2-5,38.73-10.08,58.58-15.25c42.35-15.8,13.86-33.36,3.84-32.87c-21.11,1.03-76.72,17.96-87.7,22.42
			c-1.27,0.51-2.82-0.02-3.26-1.29c-0.4-1.16,0.1-2.23,1.51-3.19c1.07-0.73,2.04-1.48,2.91-2.26c1.19-1.07,0.97-2.96-0.38-3.82
			c-4.09-2.63-6.43,2.48-9.28-1.47c-3.44-4.76-1.89-6.26-2.57-13.89c2.27-1.92,3.4-4.14,3.39-6.69c-0.01-2.54-1.16-4.6-3.44-6.19
			c-1.64-0.63-2.61-0.62-2.93,0.01c-0.33,0.64-0.57,1.28-0.73,1.91c-0.17,0.64-0.48,1.28-0.97,1.91c-0.49,0.64-1.39,0.65-2.69,0.01
			c0.31-3.5,1.11-6.36,2.41-8.6c1.29-2.23,2.26-4.93,2.9-8.12l105.62-25.74c4.24,3.16,114.06-26.21,132.14-22.77
			c7.01,1.33,12.73,6.95,19.59,10.42c6.86,3.48,20.5,7.18,26.04,11.1c6.54,4.64,17.21,3.51,15.09,10.2
			c-2.58,8.15-66.74,5.09-60.84,28.65 M427.91,259.19"/>
	</g>
	<g class="st4">
		<path class="st5" d="M425.11,393.17c-0.83,0-1.74-0.05-2.7-0.15c-13.74-1.42-44.8-9.74-49.49-14.75l-0.42-0.44
			c-3.57-3.8-6.65-7.08-7.64-21.91c-0.49-7.28-1.72-13.24-2.42-16.14c-1.59-6.64-2.95-9.79-6.39-9.79h-0.94l-0.91,0.44
			c-5.01,2.51-7.56,4.59-9.61,6.27c-2.54,2.08-4.38,3.58-10.74,5.48c-7.78,2.33-16.26,4.39-24.46,6.38
			c-4.74,1.15-9.64,2.34-14.4,3.58c-7.29,1.9-11.8,3.34-16.57,4.86c-3.85,1.23-7.84,2.5-13.67,4.14
			c-13.02,3.66-25.95,7.92-38.46,12.64c-5.25,0.03-9.88,0.21-13.76,0.54c-4.02,0.34-7.92,0.86-11.61,1.52
			c-2.75,0.5-10.74,1.95-10.74,1.95c-3.31,0.6-6.96,1.07-10.85,1.39c-0.44-0.06-0.85-0.09-1.26-0.09c-2.53,0-4.59,1.19-5.64,3.27
			c-0.07,0.14-0.16,0.28-0.27,0.4c-5.88,0.84-11.24,1.28-15.95,1.3L143,384.11c-4.86,0.02-9.97,0.72-15.17,2.09
			c-3.61,0.95-7.06,1.44-10.24,1.44c-0.72,0-1.44-0.03-2.14-0.07l-0.12-0.01c-28.04-1.1-50.31-10.83-66.17-28.9
			c-15.93-18.15-24.9-43.63-26.66-75.72c0.67-4.63-2.31-6.46-3.27-6.93c-0.04-0.02-0.09-0.04-0.13-0.07
			c0.14-2.27,0.53-4.37,1.17-6.26c1.08-3.22,1.34-7.02,0.78-11.6c9.75-20.31,20.97-39.45,33.36-56.89
			c12.51-17.61,27.71-33.35,45.18-46.78c3.18-2.43,5.82-5.03,7.83-7.72c1.69-2.28,3.46-4.57,5.27-6.83
			c1.57-1.97,3.39-3.76,5.41-5.32c1.75-1.35,4.12-2.31,7.05-2.84l1.37-0.25l0.92-1.05c7.84-8.95,17.42-17.27,28.45-24.71
			c11.23-7.58,23.12-14.95,35.33-21.92c12.29-7,24.86-14.28,37.35-21.63c11.78-6.93,22.65-14.53,32.33-22.6
			c2.26,1.08,4.31,1.61,6.22,1.61c1.15,0,2.25-0.2,3.27-0.58c0.73-0.28,1.46-0.41,2.22-0.41c0.1,0,0.21,0,0.31,0.01
			c3.22,5.85,7.38,10.07,12.38,12.57c4.74,2.37,9.71,4.78,14.78,7.14c4.79,2.24,9.33,4.97,13.49,8.1c2.87,2.16,5.2,4.87,7.04,8.21
			c-0.11,0.1-0.21,0.21-0.31,0.32c-1.1,1.23-1.6,2.89-1.4,4.66c0.2,1.88,0.68,3.94,1.44,6.12c0.28,0.82,0.49,1.6,0.62,2.32
			c-0.08,0-4.25,0.02-4.25,0.02l0.02,4c0.02,4.25,2.68,7.06,6.84,7.29c-0.05,0.69-0.2,1.23-0.42,1.53
			c-1.13,1.56-1.59,3.51-1.38,5.91c-7.06,4.5-14.93,8.85-23.43,12.97l-30.24,14.67c-10.59,5.14-21.47,10.75-32.35,16.66
			c-10.99,5.98-22.04,12.93-32.83,20.66c-10.77,7.71-21.76,16.32-32.67,25.61c-10.93,9.31-21.59,19.31-31.69,29.71
			c-10.1,10.41-19.68,21.3-28.48,32.36c-8.85,11.13-16.48,22.15-22.68,32.75l-1,1.71l0.75,1.83c0.83,2.02,1.99,3.86,3.45,5.45
			c0.83,0.92,1.48,1.95,1.97,3.13l0.97,2.33l2.52,0.12c5.15,0.25,10.24,0.37,15.12,0.37c6.94,0,13.69-0.25,20.08-0.75
			c2.85-0.22,5.74-0.33,8.59-0.33c7.48,0,15.07,0.77,22.56,2.29l1.75,0.35l1.43-1.06c2.08-1.54,3.45-3.7,3.97-6.25
			c0.02-0.1,0.03-0.17,0.11-0.24c21.98-2.32,42.8-6.02,61.92-11c19.2-5,58.78-15.3,58.78-15.3l0.19-0.07
			c18.25-6.81,26.64-15.04,24.93-24.48c-1.16-6.43-10.55-16.14-22.07-16.14c-0.21,0-0.41,0-0.61,0.01
			c-18.65,0.91-62.64,13.58-81.96,20.15c0.31-0.85,0.45-1.77,0.37-2.71c-0.16-2-1.27-3.85-2.97-4.95c-1.47-0.95-3.05-1.43-4.68-1.43
			c-1.47,0-2.68,0.39-3.57,0.67c-0.05,0.01-0.1,0.03-0.15,0.05c-1.42-2.03-1.42-2.8-1.42-5.67c0-1.11,0-2.42-0.08-4.04
			c2.68-2.96,3.28-6.06,3.27-8.28c-0.01-3.85-1.8-7.12-5.16-9.46l-0.4-0.28l-0.45-0.17c-0.74-0.28-1.41-0.48-2.03-0.6
			c0.76-1.58,1.41-3.33,1.93-5.23l102.23-24.91c0.54,0.09,1.06,0.1,1.53,0.1c5.61,0,21.58-3.41,47.19-8.98
			c29.31-6.38,65.79-14.31,79.68-14.31c1.63,0,2.57,0.11,3.07,0.21c3.7,0.7,7.27,3.05,11.05,5.54c2.36,1.55,4.8,3.16,7.48,4.52
			c3.05,1.55,7.1,3.04,11.4,4.63c5.31,1.96,11.32,4.18,14.13,6.17c2.98,2.11,6.36,3.15,9.34,4.06c1.26,0.38,3.02,0.92,3.96,1.4
			c-2.75,1.34-10.94,2.71-17.08,3.73c-16.52,2.76-35.24,5.88-41.75,15.81c-2.16,3.3-2.8,7.01-1.91,11.06L426,336.78
			c-1.08,9.91,1.39,21.04,3.58,30.87c2.19,9.84,4.45,20.01,1.55,23.62C430.75,391.74,429.6,393.17,425.11,393.17z"/>
	</g>
	<g>
		<path class="st6" d="M425.11,407.17c-1.31,0-2.7-0.08-4.14-0.22c-10.42-1.08-48.95-9.14-58.28-19.12l-0.39-0.42
			c-5.71-6.08-10.17-12.2-11.4-30.56c-0.16-2.41-0.42-4.71-0.73-6.81c-2.85,1.97-6.35,3.76-12.3,5.54
			c-8.13,2.44-16.79,4.54-25.17,6.57c-4.68,1.14-9.52,2.31-14.17,3.52c-6.93,1.8-11.06,3.12-15.84,4.65
			c-3.97,1.27-8.07,2.58-14.15,4.29c-12.85,3.62-25.62,7.83-37.96,12.51l-1.7,0.64l-1.82,0.01c-5.18,0.02-9.68,0.19-13.37,0.5
			c-3.56,0.31-7.03,0.76-10.29,1.35c-2.74,0.5-10.74,1.95-10.74,1.95c-3.39,0.62-7.08,1.11-10.98,1.46
			c-0.73,0.7-1.54,1.33-2.41,1.91l-1.83,1.2l-2.16,0.32c-6.96,1.05-13.36,1.59-19.03,1.61l-13.2,0.05
			c-3.68,0.01-7.6,0.56-11.65,1.63c-4.78,1.26-9.42,1.9-13.81,1.9c-0.99,0-1.99-0.03-2.96-0.1c-31.96-1.29-57.53-12.61-76-33.65
			c-17.72-20.19-27.8-47.85-30-82.25c-0.2-0.18-0.4-0.36-0.59-0.55l-2.99-2.92l-0.02-4.18c-0.02-4.58,0.64-8.88,1.95-12.78
			c0.2-0.6,0.61-2.42,0.03-6.3l-0.45-3.02l1.31-2.76c10.21-21.44,22.02-41.65,35.1-60.05c13.31-18.74,29.48-35.48,48.05-49.77
			c2.19-1.67,3.91-3.35,5.14-5c1.77-2.38,3.64-4.81,5.55-7.2c2.27-2.84,4.89-5.42,7.78-7.66c2.69-2.08,5.89-3.66,9.55-4.71
			c8.2-8.93,17.94-17.22,28.98-24.67c11.52-7.77,23.71-15.34,36.23-22.47c12.24-6.97,24.74-14.22,37.18-21.54
			c11.95-7.03,22.86-14.75,32.44-22.95l5.54-4.75l6.21,3.83c0.58,0.36,1.03,0.6,1.35,0.74c1.83-0.53,3.71-0.79,5.6-0.79
			c1.85,0,3.73,0.26,5.59,0.76l4.36,1.19l1.99,4.06c1.95,3.99,4.31,6.7,7.02,8.05c4.63,2.32,9.49,4.67,14.45,6.98
			c5.67,2.65,11.05,5.88,15.99,9.6c5.86,4.41,10.34,10.4,13.33,17.8l5.52,13.68l-5.92,0.02c0.13,0.98,0.2,1.94,0.2,2.88
			c0,0.44-0.02,0.87-0.06,1.29c1.56,2.13,2.5,4.74,2.54,7.55c0.04,3.04-0.51,5.77-1.64,8.17l1.71,6.52l-6.01,3.95
			c-8.12,5.33-17.28,10.48-27.22,15.29l-30.23,14.66c-10.39,5.04-21.08,10.55-31.77,16.36c-10.49,5.71-21.04,12.35-31.38,19.74
			c-6.94,4.97-13.98,10.33-21.04,16.02l110-26.81l1.23,0.92c6.94-0.83,25.58-4.89,42.24-8.51c31.53-6.86,67.27-14.63,82.65-14.63
			c2.21,0,4.07,0.15,5.68,0.46c6.45,1.22,11.59,4.61,16.13,7.6c2.13,1.4,4.14,2.72,6.1,3.72c2.34,1.19,6.19,2.61,9.92,3.99
			c6.71,2.48,13.06,4.82,17.38,7.88c1.14,0.81,3.38,1.49,5.35,2.1c4.39,1.35,9.85,3.02,12.74,8.52c1.19,2.26,2.28,5.96,0.76,10.77
			c-2.77,8.77-12.97,10.47-28.41,13.04c-7.49,1.25-15.97,2.66-22.73,4.78c-7.64,2.39-9.37,4.55-9.61,4.9c0,0.08,0.02,0.24,0.08,0.48
			l0.3,1.19L440,337.57l-0.07,0.58c-0.88,7.62,1.34,17.63,3.31,26.46c3.04,13.66,5.91,26.57-1.19,35.42
			C438.25,404.77,432.55,407.17,425.11,407.17z M139.87,293.63c6.02,0,12.1,0.44,18.16,1.32c1.62-2.39,3.96-4.27,6.85-5.42
			l1.28-0.51l1.37-0.14c21.53-2.24,41.9-5.84,60.53-10.7c19.04-4.96,38.4-10,58.08-15.12c11.41-4.32,14.62-7.87,15.39-8.98
			c-1.21-1.75-5.85-4.3-8.11-4.35c-18.88,0.92-72.65,16.94-84.35,21.69c-1.52,0.62-3.12,0.93-4.77,0.93c-5.3,0-10-3.3-11.7-8.21
			c-0.56-1.61-0.77-3.26-0.66-4.86c-1.11-0.81-2.22-1.88-3.24-3.29c-4.28-5.91-4.27-10.3-4.26-14.17c0-1.37,0.01-2.79-0.16-4.7
			l-0.02-0.19c-0.59-0.2-1.18-0.45-1.77-0.74l-6.18-3.01l0.6-6.85c0.43-4.95,1.69-9.23,3.72-12.74c0.73-1.26,1.32-2.98,1.75-5.08
			l0.37-1.81c-1.14,0.96-2.29,1.92-3.43,2.9c-10.59,9.02-20.93,18.71-30.71,28.8c-9.78,10.08-19.06,20.62-27.57,31.33
			c-6.71,8.43-12.66,16.77-17.77,24.88c2.69,0.07,5.34,0.11,7.92,0.11c6.57,0,12.96-0.24,18.99-0.71
			C133.4,293.76,136.66,293.63,139.87,293.63z"/>
	</g>
</g>
<g>
	<text transform="matrix(0.9826 -0.1857 0.1857 0.9826 203.9541 462.8773)" class="st7 st8 st9">Peel</text>
	<g>
		<text transform="matrix(0.9826 -0.1857 0.1857 0.9826 199.9541 466.8773)" class="st0 st8 st9">Peel</text>
	</g>
	<g>
		<text transform="matrix(0.9826 -0.1857 0.1857 0.9826 203.9541 462.8773)" class="st7 st8 st9">Peel</text>
	</g>
</g>
<g id="G_overlay" class="st10">
	<g>
		<path d="M430,337c-3,26,21,63-8,60c-12.91-1.34-45.99-9.56-52-16c-4.07-4.36-8-8-9.12-24.81c-0.8-11.93-3.93-22.66-4.88-22.19
			c-10.9,5.45-8.64,8.3-21,12c-12.37,3.71-25.99,6.61-39,10c-13.02,3.39-16.99,5.28-30.17,8.99c-13.18,3.71-26.11,7.97-38.8,12.79
			c-5.54,0.02-10.26,0.2-14.17,0.53c-3.91,0.34-7.65,0.83-11.23,1.47c-3.59,0.65-7.16,1.3-10.74,1.95
			c-3.59,0.65-7.49,1.15-11.72,1.48c-1.64-0.31-2.69,0.01-3.17,0.97c-0.49,0.96-1.21,1.76-2.19,2.39
			c-6.52,0.98-12.38,1.48-17.59,1.5c-5.22,0.02-9.61,0.04-13.19,0.05c-4.57,0.02-9.28,0.68-14.16,1.96
			c-4.88,1.29-9.45,1.78-13.68,1.48c-29.32-1.15-52.33-11.25-69.02-30.26c-16.69-19.01-25.91-45.21-27.67-78.59
			c0.31-1.59-0.01-2.62-0.99-3.1c-0.98-0.47-1.8-1.02-2.45-1.66c-0.01-3.5,0.46-6.68,1.43-9.54c0.97-2.87,1.11-6.52,0.45-10.97
			c10.01-21.02,21.42-40.54,34.23-58.56c12.8-18.01,28.13-33.89,46-47.63c2.92-2.23,5.27-4.55,7.06-6.94
			c1.78-2.39,3.56-4.7,5.35-6.94c1.78-2.23,3.81-4.23,6.09-5.98c2.27-1.75,5.2-2.96,8.78-3.61c8.1-9.25,17.85-17.72,29.22-25.39
			c11.37-7.67,23.23-15.03,35.59-22.08c12.35-7.04,24.78-14.24,37.3-21.61c12.51-7.36,23.8-15.35,33.87-23.98
			c3.59,2.21,6.44,2.92,8.56,2.11c2.11-0.8,4.31-0.89,6.6-0.26c2.96,6.03,6.8,10.23,11.53,12.59c4.73,2.37,9.62,4.73,14.69,7.1
			c5.06,2.37,9.79,5.21,14.2,8.53c4.41,3.32,7.76,7.84,10.07,13.55c-2.28,0.01-3.34,0.81-3.17,2.4c0.17,1.59,0.58,3.34,1.24,5.24
			c0.66,1.91,0.99,3.66,1,5.24c0.01,1.59-1.46,2.39-4.39,2.4c0.01,2.23,1.15,3.33,3.43,3.32c1.85-0.01,3.42,1.39,3.44,3.21
			c0.03,1.96-0.38,3.52-1.2,4.66c-0.81,1.12-0.89,2.95-0.22,5.49c-7.8,5.12-16.5,10.01-26.09,14.65
			c-9.6,4.65-19.68,9.54-30.24,14.66c-10.57,5.13-21.3,10.66-32.19,16.58c-10.9,5.93-21.7,12.72-32.42,20.4
			c-10.72,7.67-21.52,16.14-32.4,25.4c-10.88,9.27-21.35,19.09-31.41,29.45c-10.06,10.38-19.47,21.06-28.22,32.06
			c-8.75,11-16.21,21.76-22.36,32.28c0.65,1.59,1.55,3.02,2.7,4.28c1.14,1.27,2.04,2.7,2.7,4.28c12.38,0.59,23.95,0.47,34.69-0.37
			c10.75-0.83,21.5-0.16,32.26,2.02c1.29-0.96,2.11-2.23,2.43-3.82c0.31-1.59,1.29-2.7,2.92-3.35c22.14-2.31,42.81-5.96,62.02-10.97
			c19.2-5,38.73-10.08,58.58-15.25c42.35-15.8,13.86-33.36,3.84-32.87c-21.11,1.03-76.72,17.96-87.7,22.42
			c-1.27,0.51-2.82-0.02-3.26-1.29c-0.4-1.16,0.1-2.23,1.51-3.19c1.07-0.73,2.04-1.48,2.91-2.26c1.19-1.07,0.97-2.96-0.38-3.82
			c-4.09-2.63-6.43,2.48-9.28-1.47c-3.44-4.76-1.89-6.26-2.57-13.89c2.27-1.92,3.4-4.14,3.39-6.69c-0.01-2.54-1.16-4.6-3.44-6.19
			c-1.64-0.63-2.61-0.62-2.93,0.01c-0.33,0.64-0.57,1.28-0.73,1.91c-0.17,0.64-0.48,1.28-0.97,1.91c-0.49,0.64-1.39,0.65-2.69,0.01
			c0.31-3.5,1.11-6.36,2.41-8.6c1.29-2.23,2.26-4.93,2.9-8.12l105.62-25.74c4.24,3.16,114.06-26.21,132.14-22.77
			c7.01,1.33,12.73,6.95,19.59,10.42c6.86,3.48,20.5,7.18,26.04,11.1c6.54,4.64,17.21,3.51,15.09,10.2
			c-2.58,8.15-66.74,5.09-60.84,28.65 M427.91,259.19"/>
	</g>
	<g class="st4">
		<path class="st5" d="M425.11,393.17c-0.83,0-1.74-0.05-2.7-0.15c-13.74-1.42-44.8-9.74-49.49-14.75l-0.42-0.44
			c-3.57-3.8-6.65-7.08-7.64-21.91c-0.49-7.28-1.72-13.24-2.42-16.14c-1.59-6.64-2.95-9.79-6.39-9.79h-0.94l-0.91,0.44
			c-5.01,2.51-7.56,4.59-9.61,6.27c-2.54,2.08-4.38,3.58-10.74,5.48c-7.78,2.33-16.26,4.39-24.46,6.38
			c-4.74,1.15-9.64,2.34-14.4,3.58c-7.29,1.9-11.8,3.34-16.57,4.86c-3.85,1.23-7.84,2.5-13.67,4.14
			c-13.02,3.66-25.95,7.92-38.46,12.64c-5.25,0.03-9.88,0.21-13.76,0.54c-4.02,0.34-7.92,0.86-11.61,1.52
			c-2.75,0.5-10.74,1.95-10.74,1.95c-3.31,0.6-6.96,1.07-10.85,1.39c-0.44-0.06-0.85-0.09-1.26-0.09c-2.53,0-4.59,1.19-5.64,3.27
			c-0.07,0.14-0.16,0.28-0.27,0.4c-5.88,0.84-11.24,1.28-15.95,1.3L143,384.11c-4.86,0.02-9.97,0.72-15.17,2.09
			c-3.61,0.95-7.06,1.44-10.24,1.44c-0.72,0-1.44-0.03-2.14-0.07l-0.12-0.01c-28.04-1.1-50.31-10.83-66.17-28.9
			c-15.93-18.15-24.9-43.63-26.66-75.72c0.67-4.63-2.31-6.46-3.27-6.93c-0.04-0.02-0.09-0.04-0.13-0.07
			c0.14-2.27,0.53-4.37,1.17-6.26c1.08-3.22,1.34-7.02,0.78-11.6c9.75-20.31,20.97-39.45,33.36-56.89
			c12.51-17.61,27.71-33.35,45.18-46.78c3.18-2.43,5.82-5.03,7.83-7.72c1.69-2.28,3.46-4.57,5.27-6.83
			c1.57-1.97,3.39-3.76,5.41-5.32c1.75-1.35,4.12-2.31,7.05-2.84l1.37-0.25l0.92-1.05c7.84-8.95,17.42-17.27,28.45-24.71
			c11.23-7.58,23.12-14.95,35.33-21.92c12.29-7,24.86-14.28,37.35-21.63c11.78-6.93,22.65-14.53,32.33-22.6
			c2.26,1.08,4.31,1.61,6.22,1.61c1.15,0,2.25-0.2,3.27-0.58c0.73-0.28,1.46-0.41,2.22-0.41c0.1,0,0.21,0,0.31,0.01
			c3.22,5.85,7.38,10.07,12.38,12.57c4.74,2.37,9.71,4.78,14.78,7.14c4.79,2.24,9.33,4.97,13.49,8.1c2.87,2.16,5.2,4.87,7.04,8.21
			c-0.11,0.1-0.21,0.21-0.31,0.32c-1.1,1.23-1.6,2.89-1.4,4.66c0.2,1.88,0.68,3.94,1.44,6.12c0.28,0.82,0.49,1.6,0.62,2.32
			c-0.08,0-4.25,0.02-4.25,0.02l0.02,4c0.02,4.25,2.68,7.06,6.84,7.29c-0.05,0.69-0.2,1.23-0.42,1.53
			c-1.13,1.56-1.59,3.51-1.38,5.91c-7.06,4.5-14.93,8.85-23.43,12.97l-30.24,14.67c-10.59,5.14-21.47,10.75-32.35,16.66
			c-10.99,5.98-22.04,12.93-32.83,20.66c-10.77,7.71-21.76,16.32-32.67,25.61c-10.93,9.31-21.59,19.3-31.69,29.71
			s-19.68,21.3-28.48,32.36c-8.85,11.13-16.48,22.15-22.68,32.75l-1,1.71l0.75,1.83c0.83,2.02,1.99,3.86,3.45,5.45
			c0.83,0.92,1.48,1.95,1.97,3.13l0.97,2.33l2.52,0.12c5.15,0.25,10.24,0.37,15.12,0.37c6.94,0,13.69-0.25,20.08-0.75
			c2.85-0.22,5.74-0.33,8.59-0.33c7.48,0,15.07,0.77,22.56,2.29l1.75,0.35l1.43-1.06c2.08-1.54,3.45-3.7,3.97-6.25
			c0.02-0.1,0.03-0.17,0.11-0.24c21.98-2.32,42.8-6.02,61.92-11c19.2-5,58.78-15.3,58.78-15.3l0.19-0.07
			c18.25-6.81,26.64-15.04,24.93-24.48c-1.16-6.43-10.55-16.14-22.07-16.14c-0.21,0-0.41,0-0.61,0.01
			c-18.65,0.91-62.64,13.58-81.96,20.15c0.31-0.85,0.45-1.77,0.37-2.71c-0.16-2-1.27-3.85-2.97-4.95c-1.47-0.95-3.05-1.43-4.68-1.43
			c-1.47,0-2.68,0.39-3.57,0.67c-0.05,0.01-0.1,0.03-0.15,0.05c-1.42-2.03-1.42-2.8-1.42-5.67c0-1.11,0-2.42-0.08-4.04
			c2.68-2.96,3.28-6.06,3.27-8.28c-0.01-3.85-1.8-7.12-5.16-9.46l-0.4-0.28l-0.45-0.17c-0.74-0.28-1.41-0.48-2.03-0.6
			c0.76-1.58,1.41-3.33,1.93-5.23l102.23-24.91c0.54,0.09,1.06,0.1,1.53,0.1c5.61,0,21.58-3.41,47.19-8.98
			c29.31-6.38,65.79-14.31,79.68-14.31c1.63,0,2.57,0.11,3.07,0.21c3.7,0.7,7.27,3.05,11.05,5.54c2.36,1.55,4.8,3.16,7.48,4.52
			c3.05,1.55,7.1,3.04,11.4,4.63c5.31,1.96,11.32,4.18,14.13,6.17c2.98,2.11,6.36,3.15,9.34,4.06c1.26,0.38,3.02,0.92,3.96,1.4
			c-2.75,1.34-10.94,2.71-17.08,3.73c-16.52,2.76-35.24,5.88-41.75,15.81c-2.16,3.3-2.8,7.01-1.91,11.06L426,336.78
			c-1.08,9.91,1.39,21.04,3.58,30.87c2.19,9.84,4.45,20.01,1.55,23.62C430.75,391.74,429.6,393.17,425.11,393.17z"/>
	</g>
	<g>
		<path class="st6" d="M425.11,407.17c-1.31,0-2.7-0.08-4.14-0.22c-10.42-1.08-48.95-9.14-58.28-19.12l-0.39-0.42
			c-5.71-6.08-10.17-12.2-11.4-30.56c-0.16-2.41-0.42-4.71-0.73-6.81c-2.85,1.97-6.35,3.76-12.3,5.54
			c-8.13,2.44-16.79,4.54-25.17,6.57c-4.68,1.14-9.52,2.31-14.17,3.52c-6.93,1.8-11.06,3.12-15.84,4.65
			c-3.97,1.27-8.07,2.58-14.15,4.29c-12.85,3.62-25.62,7.83-37.96,12.51l-1.7,0.64l-1.82,0.01c-5.18,0.02-9.68,0.19-13.37,0.5
			c-3.56,0.31-7.03,0.76-10.29,1.35c-2.74,0.5-10.74,1.95-10.74,1.95c-3.39,0.62-7.08,1.11-10.98,1.46
			c-0.73,0.7-1.54,1.33-2.41,1.91l-1.83,1.2l-2.16,0.32c-6.96,1.05-13.36,1.59-19.03,1.61l-13.2,0.05
			c-3.68,0.01-7.6,0.56-11.65,1.63c-4.78,1.26-9.42,1.9-13.81,1.9c-0.99,0-1.99-0.03-2.96-0.1c-31.96-1.29-57.53-12.61-76-33.65
			c-17.72-20.19-27.8-47.85-30-82.25c-0.2-0.18-0.4-0.36-0.59-0.55l-2.99-2.92l-0.02-4.18c-0.02-4.58,0.64-8.88,1.95-12.78
			c0.2-0.6,0.61-2.42,0.03-6.3l-0.45-3.02l1.31-2.76c10.21-21.44,22.02-41.65,35.1-60.05c13.31-18.74,29.48-35.48,48.05-49.77
			c2.19-1.67,3.91-3.35,5.14-5c1.77-2.38,3.64-4.81,5.55-7.2c2.27-2.84,4.89-5.42,7.78-7.66c2.69-2.08,5.89-3.66,9.55-4.71
			c8.2-8.93,17.94-17.22,28.98-24.67c11.52-7.77,23.71-15.34,36.23-22.47c12.24-6.97,24.74-14.22,37.18-21.54
			c11.95-7.03,22.86-14.75,32.44-22.95l5.54-4.75l6.21,3.83c0.58,0.36,1.03,0.6,1.35,0.74c1.83-0.53,3.71-0.79,5.6-0.79
			c1.85,0,3.73,0.26,5.59,0.76l4.36,1.19l1.99,4.06c1.95,3.99,4.31,6.7,7.02,8.05c4.63,2.32,9.49,4.67,14.45,6.98
			c5.67,2.65,11.05,5.88,15.99,9.6c5.86,4.41,10.34,10.4,13.33,17.8l5.52,13.68l-5.92,0.02c0.13,0.98,0.2,1.94,0.2,2.88
			c0,0.44-0.02,0.87-0.06,1.29c1.56,2.13,2.5,4.74,2.54,7.55c0.04,3.04-0.51,5.77-1.64,8.17l1.71,6.52l-6.01,3.95
			c-8.12,5.33-17.28,10.48-27.22,15.29l-30.23,14.66c-10.39,5.04-21.08,10.55-31.77,16.36c-10.49,5.71-21.04,12.35-31.38,19.74
			c-6.94,4.97-13.98,10.33-21.04,16.02l110-26.81l1.23,0.92c6.94-0.83,25.58-4.89,42.24-8.51c31.53-6.86,67.27-14.63,82.65-14.63
			c2.21,0,4.07,0.15,5.68,0.46c6.45,1.22,11.59,4.61,16.13,7.6c2.13,1.4,4.14,2.72,6.1,3.72c2.34,1.19,6.19,2.61,9.92,3.99
			c6.71,2.48,13.06,4.82,17.38,7.88c1.14,0.81,3.38,1.49,5.35,2.1c4.39,1.35,9.85,3.02,12.74,8.52c1.19,2.26,2.28,5.96,0.76,10.77
			c-2.77,8.77-12.97,10.47-28.41,13.04c-7.49,1.25-15.97,2.66-22.73,4.78c-7.64,2.39-9.37,4.55-9.61,4.9c0,0.08,0.02,0.24,0.08,0.48
			l0.3,1.19L440,337.57l-0.07,0.58c-0.88,7.62,1.34,17.63,3.31,26.46c3.04,13.66,5.91,26.57-1.19,35.42
			C438.25,404.77,432.55,407.17,425.11,407.17z M139.87,293.63c6.02,0,12.1,0.44,18.16,1.32c1.62-2.39,3.96-4.27,6.85-5.42
			l1.28-0.51l1.37-0.14c21.53-2.24,41.9-5.84,60.53-10.7c19.04-4.96,38.4-10,58.08-15.12c11.41-4.32,14.62-7.87,15.39-8.98
			c-1.21-1.75-5.85-4.3-8.11-4.35c-18.88,0.92-72.65,16.94-84.35,21.69c-1.52,0.62-3.12,0.93-4.77,0.93c-5.3,0-10-3.3-11.7-8.21
			c-0.56-1.61-0.77-3.26-0.66-4.86c-1.11-0.81-2.22-1.88-3.24-3.29c-4.28-5.91-4.27-10.3-4.26-14.17c0-1.37,0.01-2.79-0.16-4.7
			l-0.02-0.19c-0.59-0.21-1.19-0.45-1.78-0.74l-6.17-3.02l0.6-6.84c0.43-4.95,1.69-9.23,3.72-12.74c0.73-1.26,1.32-2.98,1.75-5.08
			l0.37-1.81c-1.14,0.96-2.29,1.92-3.43,2.9c-10.59,9.02-20.92,18.71-30.71,28.8c-9.78,10.08-19.06,20.62-27.57,31.33
			c-6.71,8.43-12.66,16.77-17.77,24.88c2.69,0.07,5.34,0.11,7.92,0.11c6.57,0,12.96-0.24,18.99-0.71
			C133.4,293.76,136.66,293.63,139.87,293.63z"/>
	</g>
</g>
</svg>
